<svg enable-background="new 0 0 2427 1530.5" viewBox="0 0 2427 1530.5" xmlns="http://www.w3.org/2000/svg"><path d="m130.3 0h2166.3c72 0 130.3 58.4 130.3 130.3v1269.8c0 72-58.4 130.3-130.3 130.3h-2166.3c-72 0-130.3-58.4-130.3-130.3v-1269.8c0-71.9 58.4-130.3 130.3-130.3z" fill="#0071bc"/><g fill="#fff"><path d="m.5 1045h2426v229h-2426z"/><path d="m245.7 141.1 58.8 29.4-75.7 37.9-58.8-29.5-41.8 20.9 58.8 29.4 41.9 20.9 58.8 29.4 41.8-20.9-58.8-29.4 75.7-37.9 58.8 29.4 41.8-20.9-58.8-29.4-41.8-20.9-58.8-29.4z"/><ellipse cx="147.3" cy="254" rx="23.9" ry="39.9" transform="matrix(.8232 -.5677 .5677 .8232 -118.1711 128.5145)"/><ellipse cx="247.1" cy="411.4" rx="23.8" ry="39.8" transform="matrix(.8211 -.5707 .5707 .8211 -190.5863 214.6211)"/><ellipse cx="247.2" cy="307.1" rx="23.9" ry="39.9" transform="matrix(.8232 -.5677 .5677 .8232 -130.6507 194.6158)"/><ellipse cx="147.3" cy="359.8" rx="23.9" ry="39.9" transform="matrix(.8232 -.5677 .5677 .8232 -178.2323 147.2175)"/><ellipse cx="147.3" cy="254" rx="23.9" ry="39.9" transform="matrix(.8232 -.5677 .5677 .8232 -118.1711 128.5145)"/><ellipse cx="247.1" cy="411.4" rx="23.8" ry="39.8" transform="matrix(.8211 -.5707 .5707 .8211 -190.5863 214.6211)"/><ellipse cx="247.2" cy="307.1" rx="23.9" ry="39.9" transform="matrix(.8232 -.5677 .5677 .8232 -130.6507 194.6158)"/><ellipse cx="147.3" cy="359.8" rx="23.9" ry="39.9" transform="matrix(.8232 -.5677 .5677 .8232 -178.2323 147.2175)"/><path d="m323.3 280.6c6.6-3.3 12.2-3.8 16.8-1.5s7 6.7 7 13.3c0 6.5-2.3 13.2-7 20.2-4.2 6.5-9.9 11.8-16.8 15.4-5.5 2.8-10.4 3.4-14.9 2v26.4l-8.8 4.4v-44.6c0-6.6 2.3-13.3 7-20.3 4.1-6.5 9.9-11.7 16.7-15.3zm0 38.6c4.3-2.2 7.9-5.6 10.6-9.6 2.9-4.4 4.4-8.6 4.4-12.7s-1.5-6.9-4.4-8.4c-3-1.4-6.5-1.1-10.6 1-4.3 2.2-7.9 5.6-10.5 9.6-2.9 4.4-4.4 8.6-4.4 12.7s1.5 6.9 4.4 8.3c2.9 1.5 6.4 1.2 10.5-.9z"/><path d="m392.5 341.4-8.8 4.4v-5.3c-3.9 5.4-9 9.8-14.9 12.9-6.5 3.3-12.1 3.7-16.7 1.4s-7-6.7-7-13.2c0-6.6 2.3-13.3 7-20.3 4.1-6.5 9.9-11.8 16.7-15.3 6.6-3.3 12.2-3.8 16.8-1.5s7 6.7 7 13.3zm-23.7 3.2c4.3-2.2 8-5.6 10.6-9.6 3-4.4 4.4-8.6 4.4-12.7-.1-4.1-1.5-6.9-4.4-8.4-3-1.4-6.5-1.1-10.6 1-4.3 2.2-7.9 5.5-10.5 9.6-2.9 4.4-4.3 8.7-4.3 12.8s1.4 6.9 4.4 8.3c2.7 1.4 6.2 1.1 10.4-1z"/><path d="m450.6 350.9c0 6.5-2.4 13.3-7 20.2-4.1 6.5-9.9 11.7-16.8 15.3v-8.8c4.3-2.2 8-5.6 10.6-9.6 2.9-4.4 4.3-8.6 4.4-12.8v-5.1c-3.8 5.1-8.7 9.3-14.3 12.3-6.5 3.3-12 3.7-16.5 1.3s-6.7-6.8-6.6-13.4v-23.8l8.8-4.4v23.8c0 4.2 1.4 7 4.1 8.5s6.1 1.2 10.2-.8c4.2-2.2 7.7-5.5 10.2-9.5 2.6-3.7 4-8.1 4.1-12.5v-23.7l8.8-4.4z"/><path d="m128 623.9c0-41.9 23.9-67.9 58.5-67.9 13.8-.2 27.1 5.6 36.4 15.8l-6.3 7c-6.7-7.2-15.5-13.1-29.9-13.1-29.2 0-47.3 22.3-47.3 57.8 0 35.8 17.1 58.7 46.6 58.7 11.5 0 22-3.4 27.9-9.4v-39.4h-30.4v-9.2h40.9v52.8c-8.5 8.8-22 14.9-39.4 14.9-34 0-57-26.3-57-68z"/><path d="m268.2 689.6h-10.8v-131.2h10.8z"/><path d="m378.7 567.5h-61.6v50.6h52v9.2h-52v62.3h-10.8v-131.2h72.4z"/><path d="m388.8 558.4h93.6v9.2h-41.4v122h-11v-122h-41.2z"/><path d="m128 839.9c0-41.9 23.2-67.9 56.5-67.9 13.3-.2 26 5.6 34.6 15.8l-6.1 7c-7-7.9-16.2-13.1-28.4-13.1-27.9 0-45.2 22.3-45.2 57.8 0 35.8 17.1 58.7 44.6 58.7 13.7 0 23.2-5.6 32.6-15.8l6.1 6.8c-10.1 11.7-22 18.7-39.2 18.7-32.5 0-55.5-26.3-55.5-68z"/><path d="m242.3 905.6h-10.8l45.9-131.2h11.2l45.9 131.2h-11.6l-14.6-44.1h-51.1zm40.9-121.5h-.7c-4.5 15.8-9 29.7-14.2 45l-8.1 23.8h45.4l-7.9-23.8c-5.7-15.3-9.7-29.2-14.5-45z"/><path d="m365.6 846.4v59.2h-10.8v-131.2h38.3c26.1 0 43.7 9.7 43.7 35.1 0 21.1-12.4 32.9-32.8 36l35.5 60.1h-12.2l-34.9-59.2zm60.3-36.9c0-19.3-12.4-26.1-35.3-26.1h-25v54h25c23.1 0 35.3-9 35.3-27.9z"/><path d="m555.3 839.5c0 40.1-19.6 66-59.9 66h-31.1v-131.1h31c40.2 0 60 24.8 60 65.1zm-11.3 0c0-34-15.3-56.2-49.9-56.2h-19.1v113h19.1c34.6.1 49.9-22.9 49.9-56.8z"/><path d="m2274.3 907.9h-7.2l-9.7-40.4h-14.3c-3.2 13.1-6.7 27.4-9.7 40.4h-6.8l-9-40.4h-14.4v-5l10.9-.5h2.3l-8.8-38.7h6.1l8.5 38.6h16.4l7.7-33.5h7.8l7.8 33.5h16.4c2.5-12.5 5.5-26.2 8.3-38.6h6l-8.5 38.6h12.5v5.5h-13.6zm-47-21.4 2.4 14.4h.2l3-14.5 4.3-19h-14zm23-51.1h-.2l-3.2 16.1-2.4 10.4h11.6l-2.5-10.4zm17.2 51 2.9 14.3h.2l2.5-14.3 4.1-19h-14.2z"/><path d="m1664.2 825.6c27 0 41.4 16.7 41.4 39 0 27.1-20.4 44.9-46.3 44.9-15.3 0-28.2-6.3-36-13.7l8.5-11.7c7.7 6.4 17.7 11.1 28.2 11.1 17.6 0 30.3-11 30.3-29.8 0-16.7-10.8-26.4-29.1-26.4-6.8 0-13.4 1.6-20.9 4.2l-10.3-3 10.4-60.4h61.1v14.6h-49.9l-5.7 33.4c5.9-1.5 12-2.2 18.3-2.2z"/><path d="m1768.6 910.3c-26.4 0-46.8-20.7-46.8-65.9 0-45.4 20.4-66.1 46.8-66.1 26.3 0 46.8 20.7 46.8 66.1 0 45.2-20.6 65.9-46.8 65.9zm0-119c-16.2 0-30.6 13.2-30.6 53.1 0 39.7 14.4 53.1 30.6 53.1s30.8-13.4 30.8-53.1c0-39.9-14.7-53.1-30.8-53.1z"/><path d="m1835 921h-11.5l6.3-35.1h15.8z"/><path d="m1905.2 910.3c-26.4 0-46.8-20.7-46.8-65.9 0-45.4 20.4-66.1 46.8-66.1 26.3 0 46.8 20.7 46.8 66.1 0 45.2-20.6 65.9-46.8 65.9zm0-119c-16.2 0-30.6 13.2-30.6 53.1 0 39.7 14.4 53.1 30.6 53.1s30.8-13.4 30.8-53.1c0-39.9-14.7-53.1-30.8-53.1z"/><path d="m2008.9 910.3c-26.4 0-46.8-20.7-46.8-65.9 0-45.4 20.4-66.1 46.8-66.1 26.3 0 46.8 20.7 46.8 66.1 0 45.2-20.6 65.9-46.8 65.9zm0-119c-16.2 0-30.6 13.2-30.6 53.1 0 39.7 14.4 53.1 30.6 53.1s30.8-13.4 30.8-53.1c0-39.9-14.7-53.1-30.8-53.1z"/><path d="m2112.6 910.3c-26.4 0-46.8-20.7-46.8-65.9 0-45.4 20.4-66.1 46.8-66.1 26.3 0 46.8 20.7 46.8 66.1 0 45.2-20.6 65.9-46.8 65.9zm0-119c-16.2 0-30.6 13.2-30.6 53.1 0 39.7 14.4 53.1 30.6 53.1s30.8-13.4 30.8-53.1c0-39.9-14.7-53.1-30.8-53.1z"/></g></svg>