<svg viewBox="0 0 2427 1530.5" xmlns="http://www.w3.org/2000/svg"><rect fill="#0071bc" height="1530.5" rx="130.34" width="2427"/><g fill="#fff"><path d="m.5 1045h2426v229h-2426z"/><path d="m245.74 141.07 58.78 29.39-75.71 37.86-58.79-29.39-41.84 20.92 58.78 29.39 41.85 20.92 58.78 29.39 41.84-20.92-58.78-29.39 75.72-37.86 58.78 29.39 41.84-20.92-58.78-29.39-41.84-20.92-58.78-29.39z"/><ellipse cx="146.79" cy="254.01" rx="23.85" ry="39.88" transform="matrix(.82323546 -.56770007 .56770007 .82323546 -117.76 128.24)"/><ellipse cx="246.65" cy="411.36" rx="23.82" ry="39.83" transform="matrix(.82114921 -.57071357 .57071357 .82114921 -190.17 214.37)"/><ellipse cx="246.69" cy="307.11" rx="23.85" ry="39.88" transform="matrix(.82323546 -.56770007 .56770007 .82323546 -130.24 194.33)"/><ellipse cx="146.79" cy="359.81" rx="23.85" ry="39.88" transform="matrix(.82323546 -.56770007 .56770007 .82323546 -177.82 146.94)"/><ellipse cx="146.79" cy="254.01" rx="23.85" ry="39.88" transform="matrix(.82323546 -.56770007 .56770007 .82323546 -117.76 128.24)"/><ellipse cx="246.65" cy="411.36" rx="23.82" ry="39.83" transform="matrix(.82114921 -.57071357 .57071357 .82114921 -190.17 214.37)"/><ellipse cx="246.69" cy="307.11" rx="23.85" ry="39.88" transform="matrix(.82323546 -.56770007 .56770007 .82323546 -130.24 194.33)"/><ellipse cx="146.79" cy="359.81" rx="23.85" ry="39.88" transform="matrix(.82323546 -.56770007 .56770007 .82323546 -177.82 146.94)"/><path d="m322.77 280.61q9.86-4.92 16.79-1.48t7 13.31q0 9.76-7 20.19a44 44 0 0 1 -16.79 15.37q-8.24 4.13-14.86 2v26.35l-8.83 4.44v-44.6q0-9.86 7-20.29a43.92 43.92 0 0 1 16.69-15.29zm0 38.6a27.77 27.77 0 0 0 10.56-9.65q4.41-6.56 4.35-12.69t-4.35-8.37q-4.43-2.13-10.56.95a27.67 27.67 0 0 0 -10.51 9.63q-4.35 6.57-4.35 12.74t4.35 8.32q4.35 2.14 10.51-.93z" transform="translate(.5)"/><path d="m392 341.42-8.83 4.43v-5.34a43.27 43.27 0 0 1 -14.92 12.91q-9.76 4.9-16.72 1.44t-7-13.24q0-9.86 7-20.28a44 44 0 0 1 16.74-15.34q9.86-4.94 16.79-1.48t7 13.3zm-23.75 3.15a27.8 27.8 0 0 0 10.58-9.65q4.44-6.57 4.35-12.68t-4.35-8.38q-4.44-2.13-10.57 1a27.69 27.69 0 0 0 -10.52 9.6q-4.33 6.6-4.34 12.76t4.35 8.32q4.34 2.16 10.5-.93z" transform="translate(.5)"/><path d="m450.1 350.86q-.06 9.79-7 20.25a43.49 43.49 0 0 1 -16.75 15.27v-8.83a27.55 27.55 0 0 0 10.57-9.65q4.34-6.54 4.35-12.76v-5.08a41.91 41.91 0 0 1 -14.32 12.27q-9.76 4.89-16.52 1.33t-6.63-13.4v-23.75l8.83-4.43v23.75q0 6.23 4.08 8.45t10.24-.78a26.16 26.16 0 0 0 10.22-9.5 23.05 23.05 0 0 0 4.08-12.55v-23.74l8.83-4.44z" transform="translate(.5)"/><path d="m127.5 623.88c0-41.94 23.94-67.86 58.5-67.86a48.33 48.33 0 0 1 36.36 15.84l-6.3 7c-6.66-7.2-15.48-13.14-29.88-13.14-29.16 0-47.34 22.32-47.34 57.78 0 35.81 17.1 58.67 46.62 58.67 11.52 0 22-3.42 27.9-9.36v-39.39h-30.42v-9.18h40.86v52.76c-8.46 8.82-22 14.94-39.42 14.94-33.84-.03-56.88-26.31-56.88-68.06z" transform="translate(.5)"/><path d="m267.72 689.57h-10.8v-131.21h10.8z" transform="translate(.5)"/><path d="m378.23 567.54h-61.56v50.58h52v9.18h-52v62.27h-10.79v-131.21h72.35z" transform="translate(.5)"/><path d="m388.32 558.36h93.59v9.18h-41.4v122h-11v-122h-41.19z" transform="translate(.5)"/><path d="m127.5 839.88c0-41.94 23.22-67.88 56.5-67.88a44.22 44.22 0 0 1 34.56 15.84l-6.12 7c-7-7.92-16.2-13.14-28.44-13.14-27.9 0-45.18 22.32-45.18 57.78 0 35.81 17.1 58.67 44.64 58.67 13.68 0 23.22-5.58 32.58-15.84l6.12 6.84c-10.08 11.7-22 18.72-39.24 18.72-32.38.04-55.42-26.24-55.42-67.99z" transform="translate(.5)"/><path d="m241.8 905.57h-10.8l45.9-131.21h11.16l45.94 131.21h-11.56l-14.58-44.1h-51.12zm40.86-121.49h-.72c-4.5 15.84-9 29.7-14.22 45l-8.1 23.76h45.38l-7.92-23.76c-5.6-15.3-9.56-29.16-14.42-45z" transform="translate(.5)"/><path d="m365.1 846.36v59.21h-10.8v-131.21h38.34c26.1 0 43.74 9.72 43.74 35.1 0 21.06-12.42 32.94-32.76 36l35.45 60.11h-12.24l-34.91-59.21zm60.3-36.9c0-19.26-12.42-26.1-35.28-26.1h-25v54h25c23.04 0 35.28-9 35.28-27.9z" transform="translate(.5)"/><path d="m554.81 839.52c0 40.13-19.62 66.05-59.94 66.05h-31.13v-131.21h30.95c40.31 0 60.12 24.84 60.12 65.16zm-11.34 0c0-34-15.3-56.16-49.86-56.16h-19.07v113h19.07c34.56.03 49.86-23.01 49.86-56.84z" transform="translate(.5)"/><path d="m1758.75 825.6c27 0 41.41 16.7 41.41 39 0 27.14-20.36 44.89-46.29 44.89-15.31 0-28.18-6.26-36-13.74l8.52-11.66c7.66 6.44 17.75 11.13 28.19 11.13 17.57 0 30.27-11 30.27-29.75 0-16.7-10.78-26.45-29-26.45-6.79 0-13.4 1.57-20.88 4.18l-10.27-3 10.44-60.38h61.07v14.62h-49.93l-5.74 33.41a70.8 70.8 0 0 1 18.21-2.25z" transform="translate(.5)"/><path d="m1825.91 921h-11.49l6.27-35.15h15.83z" transform="translate(.5)"/><path d="m1896 910.33c-26.45 0-46.81-20.7-46.81-65.94 0-45.42 20.36-66.12 46.81-66.12 26.27 0 46.8 20.7 46.8 66.12.03 45.24-20.5 65.94-46.8 65.94zm0-119c-16.18 0-30.62 13.22-30.62 53.07 0 39.67 14.44 53.07 30.62 53.07s30.8-13.4 30.8-53.07c.03-39.86-14.59-53.08-30.8-53.08z" transform="translate(.5)"/><path d="m1999.73 910.33c-26.45 0-46.8-20.7-46.8-65.94 0-45.42 20.35-66.12 46.8-66.12 26.28 0 46.81 20.7 46.81 66.12 0 45.24-20.54 65.94-46.81 65.94zm0-119c-16.18 0-30.62 13.22-30.62 53.07 0 39.67 14.44 53.07 30.62 53.07s30.8-13.4 30.8-53.07c0-39.86-14.62-53.08-30.8-53.08z" transform="translate(.5)"/><path d="m2103.43 910.33c-26.44 0-46.8-20.7-46.8-65.94 0-45.42 20.36-66.12 46.8-66.12 26.28 0 46.81 20.7 46.81 66.12 0 45.24-20.53 65.94-46.81 65.94zm0-119c-16.18 0-30.62 13.22-30.62 53.07 0 39.67 14.44 53.07 30.62 53.07s30.8-13.4 30.8-53.07c0-39.86-14.61-53.08-30.8-53.08z" transform="translate(.5)"/><path d="m2265.21 907.9h-7.21l-9.72-40.44h-14.28c-3.24 13.08-6.72 27.36-9.72 40.44h-6.84l-9-40.44h-14.4v-5l10.92-.48h2.27l-8.75-38.64h6.12l8.51 38.64h16.44l7.68-33.48h7.8l7.8 33.48h16.44c2.52-12.48 5.52-26.16 8.28-38.64h6l-8.52 38.64h12.48v5.52h-13.51zm-46.92-21.36 2.4 14.4h.24l3-14.52 4.32-19h-14zm22.92-51.12h-.21l-3.24 16.08-2.4 10.44h11.64l-2.52-10.44zm17.28 51 2.88 14.28h.24l2.52-14.28 4.08-19h-14.16z" transform="translate(.5)"/></g></svg>